<mxfile host="Electron" modified="2024-04-14T00:49:35.665Z" agent="Mozilla/5.0 (Windows NT 10.0; Win64; x64) AppleWebKit/537.36 (KHTML, like Gecko) draw.io/24.1.0 Chrome/120.0.6099.109 Electron/28.1.0 Safari/537.36" etag="VCLnZ3mcSNqg13czpiBL" version="24.1.0" type="device">
  <diagram name="Page-1" id="RpcYlBoQHnMd1Clznicj">
    <mxGraphModel dx="792" dy="827" grid="1" gridSize="10" guides="1" tooltips="1" connect="1" arrows="1" fold="1" page="1" pageScale="1" pageWidth="827" pageHeight="1169" math="0" shadow="0">
      <root>
        <mxCell id="0" />
        <mxCell id="1" parent="0" />
        <mxCell id="e1kQzvNurA2QuKDY8Zan-12" style="edgeStyle=orthogonalEdgeStyle;rounded=0;orthogonalLoop=1;jettySize=auto;html=1;exitX=0.5;exitY=1;exitDx=0;exitDy=0;entryX=0.5;entryY=0;entryDx=0;entryDy=0;" edge="1" parent="1" source="e1kQzvNurA2QuKDY8Zan-1" target="e1kQzvNurA2QuKDY8Zan-9">
          <mxGeometry relative="1" as="geometry" />
        </mxCell>
        <mxCell id="e1kQzvNurA2QuKDY8Zan-1" value="Start" style="ellipse;whiteSpace=wrap;html=1;" vertex="1" parent="1">
          <mxGeometry x="240" y="40" width="110" height="50" as="geometry" />
        </mxCell>
        <mxCell id="e1kQzvNurA2QuKDY8Zan-13" style="edgeStyle=orthogonalEdgeStyle;rounded=0;orthogonalLoop=1;jettySize=auto;html=1;entryX=0.5;entryY=0;entryDx=0;entryDy=0;" edge="1" parent="1" source="e1kQzvNurA2QuKDY8Zan-9" target="e1kQzvNurA2QuKDY8Zan-10">
          <mxGeometry relative="1" as="geometry" />
        </mxCell>
        <mxCell id="e1kQzvNurA2QuKDY8Zan-9" value="Set CS as D4" style="rounded=0;whiteSpace=wrap;html=1;" vertex="1" parent="1">
          <mxGeometry x="235" y="120" width="120" height="40" as="geometry" />
        </mxCell>
        <mxCell id="e1kQzvNurA2QuKDY8Zan-14" style="edgeStyle=orthogonalEdgeStyle;rounded=0;orthogonalLoop=1;jettySize=auto;html=1;exitX=0.5;exitY=1;exitDx=0;exitDy=0;" edge="1" parent="1" source="e1kQzvNurA2QuKDY8Zan-10" target="e1kQzvNurA2QuKDY8Zan-11">
          <mxGeometry relative="1" as="geometry" />
        </mxCell>
        <mxCell id="e1kQzvNurA2QuKDY8Zan-10" value="Drive CS HIGH" style="rounded=0;whiteSpace=wrap;html=1;" vertex="1" parent="1">
          <mxGeometry x="235" y="200" width="120" height="40" as="geometry" />
        </mxCell>
        <mxCell id="e1kQzvNurA2QuKDY8Zan-11" value="MAIN LOOP" style="shape=process;whiteSpace=wrap;html=1;backgroundOutline=1;" vertex="1" parent="1">
          <mxGeometry x="235" y="280" width="120" height="40" as="geometry" />
        </mxCell>
      </root>
    </mxGraphModel>
  </diagram>
</mxfile>
